<?xml version="1.0" encoding="utf-8"?>
<!-- Generator: Adobe Illustrator 18.0.0, SVG Export Plug-In . SVG Version: 6.00 Build 0)  -->
<!DOCTYPE svg PUBLIC "-//W3C//DTD SVG 1.1//EN" "http://www.w3.org/Graphics/SVG/1.1/DTD/svg11.dtd">
<svg version="1.1" id="Layer_3" xmlns="http://www.w3.org/2000/svg" xmlns:xlink="http://www.w3.org/1999/xlink" x="0px" y="0px"
	 width="233px" height="36px" viewBox="0 0 233 36" enable-background="new 0 0 233 36" xml:space="preserve">
<g>
	<g>
		<path fill="#FFFFFF" d="M35.9,33.3c-2,0-3.5-0.5-4.8-1.7l1.1-1.1c0.9,1,2.2,1.4,3.7,1.4c1.9,0,3.1-0.7,3.1-2.1c0-1-0.6-1.6-2-1.7
			l-1.9-0.2c-2.3-0.2-3.5-1.2-3.5-3.2c0-2.1,1.8-3.4,4.3-3.4c1.7,0,3.2,0.4,4.2,1.3L39,23.7c-0.8-0.6-1.9-0.9-3.1-0.9
			c-1.7,0-2.6,0.7-2.6,1.9c0,1,0.6,1.6,2.1,1.7l1.9,0.2c2.1,0.2,3.5,1,3.5,3.2C40.6,32,38.7,33.3,35.9,33.3z"/>
		<path fill="#FFFFFF" d="M45.9,33.2c-2,0-3-1.4-3-3.2v-7.2h-1.5v-1.3h1.5v-3.7h1.7v3.7h2.5v1.3h-2.5V30c0,1.1,0.5,1.7,1.6,1.7h0.9
			v1.5H45.9z"/>
		<path fill="#FFFFFF" d="M56,33.2v-1.1c-1,1-1.8,1.3-3.4,1.3c-1.6,0-2.6-0.3-3.3-1.1c-0.6-0.6-0.9-1.5-0.9-2.4
			c0-2.1,1.4-3.4,4.1-3.4H56v-1.1c0-1.7-0.9-2.6-3-2.6c-1.5,0-2.3,0.4-3,1.3L48.8,23c1.1-1.4,2.2-1.7,4.2-1.7c3.2,0,4.7,1.4,4.7,3.9
			v8C57.7,33.2,56,33.2,56,33.2z M56,27.8h-3.3c-1.8,0-2.6,0.7-2.6,2.1s0.8,2,2.7,2c1,0,1.9-0.1,2.6-0.8c0.4-0.4,0.6-1.1,0.6-2V27.8
			z"/>
		<path fill="#FFFFFF" d="M64.4,33.3c-3,0-5.2-2-5.2-6s2.2-6,5.2-6c1.6,0,2.7,0.4,3.9,1.7l-1.2,1.1c-0.9-1-1.6-1.3-2.7-1.3
			s-2.1,0.5-2.7,1.3c-0.5,0.8-0.8,1.7-0.8,3.2s0.2,2.4,0.8,3.2c0.6,0.9,1.6,1.3,2.7,1.3c1.1,0,1.8-0.4,2.7-1.3l1.2,1.1
			C67.1,32.9,66.1,33.3,64.4,33.3z"/>
		<path fill="#FFFFFF" d="M77.7,33.2l-3.7-6l-2.3,2.6v3.4H70v-17h1.7v11.4l5.3-6.1h2.1l-4,4.5l4.7,7.3L77.7,33.2L77.7,33.2z"/>
		<path fill="#FFFFFF" d="M89.1,31.9c-0.7,0.8-1.9,1.4-3.7,1.4c-1.7,0-2.9-0.7-3.6-1.4c-1.1-1.1-1.3-2.4-1.3-4.6
			c0-2.1,0.3-3.5,1.3-4.6c0.7-0.8,1.9-1.4,3.6-1.4s2.9,0.7,3.7,1.4c1.1,1.1,1.3,2.4,1.3,4.6C90.4,29.4,90.1,30.8,89.1,31.9z
			 M86.8,24.4c-0.3-0.3-0.8-0.5-1.4-0.5s-1,0.2-1.4,0.5c-0.6,0.6-0.7,1.6-0.7,2.9c0,1.2,0.1,2.3,0.7,2.9c0.3,0.3,0.8,0.5,1.4,0.5
			s1-0.2,1.4-0.5c0.6-0.6,0.7-1.7,0.7-2.9S87.4,25.1,86.8,24.4z"/>
		<path fill="#FFFFFF" d="M97,33.2h-2.3l-4.3-11.8h3.1l2.4,7.3l2.4-7.3h3.1L97,33.2z"/>
		<path fill="#FFFFFF" d="M104.1,28.2c0,1.5,0.9,2.6,2.6,2.6c1.3,0,1.9-0.4,2.7-1.1l1.8,1.7c-1.2,1.2-2.4,1.9-4.5,1.9
			c-2.8,0-5.5-1.3-5.5-6c0-3.8,2.1-6,5.1-6c3.3,0,5.1,2.4,5.1,5.6v1.3C111.4,28.2,104.1,28.2,104.1,28.2z M108.3,24.9
			c-0.3-0.7-1-1.2-2-1.2s-1.7,0.5-2,1.2c-0.2,0.4-0.2,0.7-0.3,1.3h4.5C108.6,25.7,108.5,25.4,108.3,24.9z"/>
		<path fill="#FFFFFF" d="M119.4,24.6c-0.5-0.5-0.8-0.7-1.6-0.7c-0.9,0-1.9,0.7-1.9,2.2v7.1H113V21.4h2.9v1.1c0.6-0.7,1.7-1.3,3-1.3
			c1.2,0,2,0.3,2.8,1.1L119.4,24.6z"/>
		<path fill="#FFFFFF" d="M126.6,23.7v9.5h-2.9v-9.5h-1.2v-2.2h1.2V20c0-1.7,1-3.4,3.4-3.4h1.7v2.5h-1.1c-0.7,0-1,0.4-1,1.1v1.3h2.2
			v2.2H126.6z M133.6,33.2c-2.4,0-3.4-1.7-3.4-3.4V16.6h2.9v13.1c0,0.7,0.3,1.1,1,1.1h1.1v2.5h-1.6V33.2z"/>
		<path fill="#FFFFFF" d="M144.3,31.9c-0.7,0.8-1.9,1.4-3.7,1.4c-1.7,0-2.9-0.7-3.6-1.4c-1.1-1.1-1.3-2.4-1.3-4.6
			c0-2.1,0.3-3.5,1.3-4.6c0.7-0.8,1.9-1.4,3.6-1.4c1.7,0,2.9,0.7,3.7,1.4c1.1,1.1,1.3,2.4,1.3,4.6C145.6,29.4,145.4,30.8,144.3,31.9
			z M142,24.4c-0.3-0.3-0.8-0.5-1.4-0.5c-0.6,0-1,0.2-1.4,0.5c-0.6,0.6-0.7,1.6-0.7,2.9c0,1.2,0.1,2.3,0.7,2.9
			c0.3,0.3,0.8,0.5,1.4,0.5c0.6,0,1-0.2,1.4-0.5c0.6-0.6,0.7-1.7,0.7-2.9S142.6,25.1,142,24.4z"/>
		<path fill="#FFFFFF" d="M158.9,33.2h-2.4l-2.5-7.4l-2.5,7.4h-2.4l-3.6-11.8h3.1l1.9,7.3l2.4-7.3h2.2l2.4,7.3l1.9-7.3h3.1
			L158.9,33.2z"/>
	</g>
	<g>
		<rect x="5.1" y="28.3" fill="#FFFFFF" width="14.6" height="2.6"/>
		<polygon fill="#FFFFFF" points="22.3,21.4 22.3,33.4 2.6,33.4 2.6,21.4 0,21.4 0,36 0,36 24.9,36 24.9,21.4 		"/>
		
			<rect x="5.3" y="23.6" transform="matrix(-0.9958 -9.182058e-02 9.182058e-02 -0.9958 22.8512 50.8563)" fill="#FFFFFF" width="14.6" height="2.6"/>
		
			<rect x="6" y="18.8" transform="matrix(-0.9723 -0.2339 0.2339 -0.9723 21.5279 42.7532)" fill="#FFFFFF" width="14.6" height="2.6"/>
		
			<rect x="8" y="13.8" transform="matrix(-0.8851 -0.4654 0.4654 -0.8851 21.7585 35.5703)" fill="#FFFFFF" width="14.6" height="2.6"/>
		
			<rect x="10.9" y="9.3" transform="matrix(-0.759 -0.6511 0.6511 -0.759 25.0744 30.5336)" fill="#FFFFFF" width="14.6" height="2.6"/>
		
			<rect x="15" y="5.4" transform="matrix(-0.5657 -0.8246 0.8246 -0.5657 29.4698 28.8952)" fill="#FFFFFF" width="14.6" height="2.6"/>
	</g>
	<g>
		<path fill="#FFFFFF" d="M169,33.3c-3,0-5.2-2-5.2-6.1c0-4,2.3-6.1,5.2-6.1c1.6,0,2.7,0.4,3.9,1.8l-1.2,1.1c-0.9-1-1.6-1.3-2.7-1.3
			c-1.2,0-2.1,0.5-2.7,1.3c-0.6,0.8-0.8,1.7-0.8,3.2s0.2,2.4,0.8,3.2c0.6,0.9,1.6,1.3,2.7,1.3c1.1,0,1.8-0.4,2.7-1.3l1.2,1.1
			C171.6,32.9,170.6,33.3,169,33.3z"/>
		<path fill="#FFFFFF" d="M181.2,33.2v-1.1c-1,1-1.8,1.3-3.4,1.3c-1.6,0-2.6-0.3-3.3-1.1c-0.6-0.6-0.9-1.5-0.9-2.4
			c0-2.1,1.4-3.4,4.1-3.4h3.6v-1.1c0-1.7-0.9-2.6-3-2.6c-1.5,0-2.3,0.4-3,1.3L174,23c1.1-1.4,2.3-1.8,4.2-1.8c3.2,0,4.7,1.4,4.7,3.9
			v8h-1.7V33.2z M181.2,27.7h-3.3c-1.8,0-2.6,0.7-2.6,2.1s0.8,2,2.7,2c1,0,1.9-0.1,2.6-0.8c0.4-0.4,0.6-1.1,0.6-2V27.7z"/>
		<path fill="#FFFFFF" d="M191,23.6c-0.6-0.6-1.1-0.9-2-0.9c-1.7,0-2.8,1.4-2.8,3.2v7.3h-1.7V21.4h1.7v1.4c0.6-1,1.9-1.6,3.3-1.6
			c1.1,0,2,0.3,2.8,1.1L191,23.6z"/>
		<path fill="#FFFFFF" d="M193.8,27.7c0,2.6,1.2,4.1,3.5,4.1c1.4,0,2.2-0.4,3.1-1.3l1.2,1c-1.2,1.2-2.3,1.8-4.3,1.8
			c-3.1,0-5.2-1.9-5.2-6.1c0-3.8,1.9-6.1,4.9-6.1c3.1,0,4.9,2.2,4.9,5.7v0.8L193.8,27.7L193.8,27.7z M199.7,24.5
			c-0.5-1.1-1.5-1.8-2.8-1.8s-2.3,0.7-2.8,1.8c-0.3,0.6-0.3,1-0.4,2h6.3C200,25.5,199.9,25.1,199.7,24.5z"/>
		<path fill="#FFFFFF" d="M204.6,27.7c0,2.6,1.2,4.1,3.5,4.1c1.4,0,2.2-0.4,3.1-1.3l1.2,1c-1.2,1.2-2.3,1.8-4.3,1.8
			c-3.1,0-5.2-1.9-5.2-6.1c0-3.8,1.9-6.1,4.9-6.1c3.1,0,4.9,2.2,4.9,5.7v0.8L204.6,27.7L204.6,27.7z M210.5,24.5
			c-0.5-1.1-1.5-1.8-2.8-1.8s-2.3,0.7-2.8,1.8c-0.3,0.6-0.3,1-0.4,2h6.3C210.8,25.5,210.8,25.1,210.5,24.5z"/>
		<path fill="#FFFFFF" d="M220.7,23.6c-0.6-0.6-1.1-0.9-2-0.9c-1.7,0-2.8,1.4-2.8,3.2v7.3h-1.7V21.4h1.7v1.4c0.6-1,1.9-1.6,3.3-1.6
			c1.1,0,2,0.3,2.8,1.1L220.7,23.6z"/>
		<path fill="#FFFFFF" d="M226.7,33.3c-2,0-3.6-0.5-4.9-1.7l1.2-1.2c0.9,1,2.2,1.4,3.7,1.4c1.9,0,3.2-0.7,3.2-2.1c0-1-0.6-1.6-2-1.7
			l-1.9-0.2c-2.3-0.2-3.5-1.2-3.5-3.2c0-2.2,1.8-3.5,4.4-3.5c1.7,0,3.2,0.4,4.3,1.3l-1.1,1.1c-0.8-0.6-1.9-0.9-3.2-0.9
			c-1.7,0-2.6,0.7-2.6,1.9c0,1,0.6,1.6,2.1,1.7l1.9,0.2c2.1,0.2,3.5,1,3.5,3.2C231.5,32,229.6,33.3,226.7,33.3z"/>
	</g>
</g>
</svg>
